<svg width="115" height="115" viewBox="0 0 115 115" fill="none" xmlns="http://www.w3.org/2000/svg">
<path d="M31.1459 95.8334C23.8626 95.8334 17.6494 93.3257 12.5063 88.3104C7.36328 83.2632 4.79175 77.1139 4.79175 69.8625C4.79175 63.6334 6.6605 58.075 10.398 53.1875C14.1674 48.3 19.0869 45.1854 25.1563 43.8438C27.1688 36.4965 31.1619 30.5549 37.1355 26.0188C43.1411 21.4507 49.9292 19.1667 57.5001 19.1667C66.8598 19.1667 74.782 22.425 81.2667 28.9417C87.7834 35.4264 91.0417 43.3486 91.0417 52.7084C96.5681 53.3472 101.136 55.7431 104.746 59.8959C108.388 63.9847 110.208 68.7764 110.208 74.2709C110.208 80.2764 108.116 85.3716 103.931 89.5563C99.7466 93.741 94.6515 95.8334 88.6459 95.8334H31.1459Z" fill="#374AF4"/>
</svg>
