<svg width="106" height="111" viewBox="0 0 106 111" fill="none" xmlns="http://www.w3.org/2000/svg">
<g clip-path="url(#clip0_17_163)" filter="url(#filter0_f_17_163)">
<path d="M74.538 60.1953C75.1864 60.3584 75.6881 60.6122 75.9613 60.915C76.2344 61.2179 76.2628 61.552 76.0418 61.8628L64.1102 78.6873H86.1251C86.7721 78.6872 87.4049 78.7693 87.9456 78.9235C88.4863 79.0777 88.9111 79.2972 89.1675 79.555C89.424 79.8127 89.5009 80.0974 89.3888 80.3739C89.2767 80.6504 88.9804 80.9066 88.5366 81.1109L35.5366 105.548C35.0238 105.785 34.3414 105.939 33.6006 105.986C32.8598 106.033 32.1044 105.969 31.4574 105.806C30.8104 105.643 30.31 105.389 30.0378 105.086C29.7656 104.784 29.7376 104.45 29.9584 104.14L41.89 87.3123H19.8751C19.2281 87.3124 18.5953 87.2303 18.0546 87.0761C17.5139 86.9219 17.0891 86.7024 16.8327 86.4447C16.5762 86.1869 16.4993 85.9022 16.6114 85.6257C16.7235 85.3492 17.0198 85.093 17.4636 84.8887L70.4636 60.4512C70.9758 60.2149 71.6572 60.0607 72.3969 60.0137C73.1366 59.9667 73.8912 60.0297 74.538 60.1924V60.1953Z" fill="black" fill-opacity="0.3"/>
</g>
<g clip-path="url(#clip1_17_163)">
<path d="M74.538 0.450497C75.1864 0.826389 75.6881 1.41106 75.9613 2.10898C76.2344 2.80691 76.2628 3.57684 76.0418 4.293L64.1102 43.0625H86.1251C86.7721 43.0622 87.4049 43.2514 87.9456 43.6067C88.4863 43.9621 88.9111 44.4679 89.1675 45.0619C89.424 45.6558 89.5009 46.3119 89.3888 46.9491C89.2767 47.5862 88.9804 48.1766 88.5366 48.6474L35.5366 104.96C35.0238 105.505 34.3414 105.861 33.6006 105.969C32.8598 106.076 32.1044 105.93 31.4574 105.554C30.8104 105.177 30.31 104.593 30.0378 103.895C29.7656 103.198 29.7376 102.429 29.9584 101.714L41.89 62.9375H19.8751C19.2281 62.9378 18.5953 62.7486 18.0546 62.3932C17.5139 62.0379 17.0891 61.5321 16.8327 60.9381C16.5762 60.3442 16.4993 59.6881 16.6114 59.0509C16.7235 58.4137 17.0198 57.8233 17.4636 57.3526L70.4636 1.04012C70.9758 0.495541 71.6572 0.140239 72.3969 0.031986C73.1366 -0.0762669 73.8912 0.068896 74.538 0.443872V0.450497Z" fill="#37F461"/>
</g>
<defs>
<filter id="filter0_f_17_163" x="-5" y="55" width="116" height="56" filterUnits="userSpaceOnUse" color-interpolation-filters="sRGB">
<feFlood flood-opacity="0" result="BackgroundImageFix"/>
<feBlend mode="normal" in="SourceGraphic" in2="BackgroundImageFix" result="shape"/>
<feGaussianBlur stdDeviation="2.5" result="effect1_foregroundBlur_17_163"/>
</filter>
<clipPath id="clip0_17_163">
<rect width="106" height="46" fill="white" transform="translate(0 60)"/>
</clipPath>
<clipPath id="clip1_17_163">
<rect width="106" height="106" fill="white"/>
</clipPath>
</defs>
</svg>
